%TF.GenerationSoftware,KiCad,Pcbnew,8.0.6-1.fc41*%
%TF.CreationDate,2024-11-27T18:25:37+08:00*%
%TF.ProjectId,signal_source,7369676e-616c-45f7-936f-757263652e6b,rev?*%
%TF.SameCoordinates,Original*%
%TF.FileFunction,Copper,L2,Bot*%
%TF.FilePolarity,Positive*%
%FSLAX46Y46*%
G04 Gerber Fmt 4.6, Leading zero omitted, Abs format (unit mm)*
G04 Created by KiCad (PCBNEW 8.0.6-1.fc41) date 2024-11-27 18:25:37*
%MOMM*%
%LPD*%
G01*
G04 APERTURE LIST*
%TA.AperFunction,ComponentPad*%
%ADD10C,2.540000*%
%TD*%
%TA.AperFunction,ComponentPad*%
%ADD11R,2.540000X2.540000*%
%TD*%
%TA.AperFunction,ComponentPad*%
%ADD12C,7.000000*%
%TD*%
%TA.AperFunction,ComponentPad*%
%ADD13R,1.700000X1.700000*%
%TD*%
%TA.AperFunction,ComponentPad*%
%ADD14O,1.700000X1.700000*%
%TD*%
%TA.AperFunction,ComponentPad*%
%ADD15C,1.500000*%
%TD*%
%TA.AperFunction,ComponentPad*%
%ADD16R,1.600000X2.400000*%
%TD*%
%TA.AperFunction,ComponentPad*%
%ADD17O,1.600000X2.400000*%
%TD*%
%TA.AperFunction,ComponentPad*%
%ADD18R,3.500000X3.500000*%
%TD*%
%TA.AperFunction,ComponentPad*%
%ADD19C,3.500000*%
%TD*%
%TA.AperFunction,ViaPad*%
%ADD20C,0.600000*%
%TD*%
%TA.AperFunction,Conductor*%
%ADD21C,0.200000*%
%TD*%
%TA.AperFunction,Conductor*%
%ADD22C,1.000000*%
%TD*%
G04 APERTURE END LIST*
D10*
%TO.P,2T:5T,1,AA*%
%TO.N,Net-(T1-AA)*%
X108360000Y-60640000D03*
%TO.P,2T:5T,2,AB*%
%TO.N,GND*%
X108360000Y-70140000D03*
D11*
%TO.P,2T:5T,3,SA*%
%TO.N,Net-(J2-Pin_1)*%
X130640000Y-60640000D03*
%TO.P,2T:5T,4,SB*%
%TO.N,Net-(J3-Pin_1)*%
X130360000Y-70340000D03*
%TD*%
D12*
%TO.P,J3,1,Pin_1*%
%TO.N,Net-(J3-Pin_1)*%
X140000000Y-65000000D03*
%TD*%
D13*
%TO.P,J1,1,Pin_1*%
%TO.N,Net-(J1-Pin_1)*%
X94225000Y-62500000D03*
D14*
%TO.P,J1,2,Pin_2*%
%TO.N,Net-(J1-Pin_2)*%
X96765000Y-62500000D03*
%TD*%
D12*
%TO.P,J2,1,Pin_1*%
%TO.N,Net-(J2-Pin_1)*%
X93500000Y-99000000D03*
%TD*%
D15*
%TO.P,Y1,1,1*%
%TO.N,Net-(C3-Pad1)*%
X135525000Y-101950000D03*
%TO.P,Y1,2,2*%
%TO.N,Net-(U1-2A3)*%
X135525000Y-97070000D03*
%TD*%
D16*
%TO.P,U1,1,1OE*%
%TO.N,GND*%
X102260000Y-103120000D03*
D17*
%TO.P,U1,2,1A0*%
%TO.N,Net-(U1-1A0)*%
X104800000Y-103120000D03*
%TO.P,U1,3,2Y0*%
%TO.N,unconnected-(U1-2Y0-Pad3)*%
X107340000Y-103120000D03*
%TO.P,U1,4,1A1*%
%TO.N,Net-(U1-1A0)*%
X109880000Y-103120000D03*
%TO.P,U1,5,2Y1*%
%TO.N,unconnected-(U1-2Y1-Pad5)*%
X112420000Y-103120000D03*
%TO.P,U1,6,1A2*%
%TO.N,Net-(U1-1A0)*%
X114960000Y-103120000D03*
%TO.P,U1,7,2Y2*%
%TO.N,unconnected-(U1-2Y2-Pad7)*%
X117500000Y-103120000D03*
%TO.P,U1,8,1A3*%
%TO.N,Net-(U1-1A0)*%
X120040000Y-103120000D03*
%TO.P,U1,9,2Y3*%
X122580000Y-103120000D03*
%TO.P,U1,10,GND*%
%TO.N,GND*%
X125120000Y-103120000D03*
%TO.P,U1,11,2A3*%
%TO.N,Net-(U1-2A3)*%
X125120000Y-95500000D03*
%TO.P,U1,12,1Y3*%
%TO.N,Net-(U1-1Y0)*%
X122580000Y-95500000D03*
%TO.P,U1,13,2A2*%
%TO.N,GND*%
X120040000Y-95500000D03*
%TO.P,U1,14,1Y2*%
%TO.N,Net-(U1-1Y0)*%
X117500000Y-95500000D03*
%TO.P,U1,15,2A1*%
%TO.N,GND*%
X114960000Y-95500000D03*
%TO.P,U1,16,1Y1*%
%TO.N,Net-(U1-1Y0)*%
X112420000Y-95500000D03*
%TO.P,U1,17,2A0*%
%TO.N,GND*%
X109880000Y-95500000D03*
%TO.P,U1,18,1Y0*%
%TO.N,Net-(U1-1Y0)*%
X107340000Y-95500000D03*
%TO.P,U1,19,2OE*%
%TO.N,GND*%
X104800000Y-95500000D03*
%TO.P,U1,20,VCC*%
%TO.N,Net-(J1-Pin_2)*%
X102260000Y-95500000D03*
%TD*%
D18*
%TO.P,BT2,1*%
%TO.N,Net-(J1-Pin_1)*%
X80500000Y-82000000D03*
D19*
%TO.P,BT2,2*%
%TO.N,GND*%
X152500000Y-82000000D03*
%TD*%
D20*
%TO.N,GND*%
X88025000Y-62500000D03*
%TD*%
D21*
%TO.N,GND*%
X152500000Y-82000000D02*
X144500000Y-90000000D01*
X88000000Y-65500000D02*
X88025000Y-65475000D01*
X144500000Y-90000000D02*
X123000000Y-90000000D01*
X120040000Y-92960000D02*
X120040000Y-95500000D01*
X123000000Y-90000000D02*
X120040000Y-92960000D01*
D22*
%TO.N,Net-(J2-Pin_1)*%
X130640000Y-61860000D02*
X93500000Y-99000000D01*
D21*
X130640000Y-60640000D02*
X130640000Y-61860000D01*
%TD*%
%TA.AperFunction,Conductor*%
%TO.N,GND*%
G36*
X107223307Y-59068185D02*
G01*
X107269062Y-59120989D01*
X107279006Y-59190147D01*
X107249981Y-59253703D01*
X107240618Y-59263388D01*
X107150786Y-59346741D01*
X107058493Y-59432375D01*
X107058492Y-59432377D01*
X106893042Y-59639845D01*
X106760361Y-59869654D01*
X106663416Y-60116667D01*
X106663410Y-60116686D01*
X106604364Y-60375385D01*
X106604363Y-60375390D01*
X106584535Y-60639995D01*
X106584535Y-60640004D01*
X106604363Y-60904609D01*
X106604364Y-60904614D01*
X106663410Y-61163313D01*
X106663412Y-61163322D01*
X106663414Y-61163327D01*
X106760361Y-61410345D01*
X106893042Y-61640155D01*
X107058492Y-61847623D01*
X107253016Y-62028114D01*
X107472268Y-62177598D01*
X107711350Y-62292734D01*
X107964922Y-62370950D01*
X107964923Y-62370950D01*
X107964926Y-62370951D01*
X108227311Y-62410499D01*
X108227316Y-62410499D01*
X108227319Y-62410500D01*
X108227320Y-62410500D01*
X108492680Y-62410500D01*
X108492681Y-62410500D01*
X108492688Y-62410499D01*
X108755073Y-62370951D01*
X108755074Y-62370950D01*
X108755078Y-62370950D01*
X109008650Y-62292734D01*
X109247733Y-62177598D01*
X109466984Y-62028114D01*
X109661508Y-61847623D01*
X109826958Y-61640155D01*
X109959639Y-61410345D01*
X110056586Y-61163327D01*
X110115635Y-60904619D01*
X110135465Y-60640000D01*
X110115635Y-60375381D01*
X110056586Y-60116673D01*
X109959639Y-59869655D01*
X109826958Y-59639845D01*
X109661508Y-59432377D01*
X109479389Y-59263396D01*
X109443636Y-59203371D01*
X109446011Y-59133541D01*
X109485761Y-59076081D01*
X109550267Y-59049233D01*
X109563732Y-59048500D01*
X128777139Y-59048500D01*
X128844178Y-59068185D01*
X128889933Y-59120989D01*
X128899877Y-59190147D01*
X128893321Y-59215833D01*
X128875908Y-59262517D01*
X128869501Y-59322116D01*
X128869501Y-59322123D01*
X128869500Y-59322135D01*
X128869500Y-61957870D01*
X128869501Y-61957876D01*
X128875908Y-62017483D01*
X128900133Y-62082431D01*
X128905117Y-62152122D01*
X128871632Y-62213445D01*
X95599931Y-95485147D01*
X95538608Y-95518632D01*
X95468916Y-95513648D01*
X95448504Y-95503825D01*
X95417341Y-95485147D01*
X95388100Y-95467620D01*
X95032772Y-95299562D01*
X95032770Y-95299561D01*
X94662684Y-95167143D01*
X94281406Y-95071637D01*
X94281401Y-95071636D01*
X94281400Y-95071636D01*
X94137256Y-95050254D01*
X93892599Y-95013963D01*
X93892597Y-95013962D01*
X93892591Y-95013962D01*
X93500000Y-94994675D01*
X93107409Y-95013962D01*
X93107403Y-95013962D01*
X93107400Y-95013963D01*
X92718593Y-95071637D01*
X92337315Y-95167143D01*
X91967229Y-95299561D01*
X91967227Y-95299562D01*
X91611899Y-95467620D01*
X91274763Y-95669692D01*
X90959043Y-95903846D01*
X90667807Y-96167807D01*
X90403846Y-96459043D01*
X90169692Y-96774763D01*
X89967620Y-97111899D01*
X89799562Y-97467227D01*
X89799561Y-97467229D01*
X89667143Y-97837315D01*
X89571637Y-98218593D01*
X89571636Y-98218600D01*
X89513962Y-98607409D01*
X89494675Y-99000000D01*
X89513962Y-99392591D01*
X89513962Y-99392597D01*
X89513963Y-99392599D01*
X89571637Y-99781406D01*
X89667143Y-100162684D01*
X89799561Y-100532770D01*
X89799562Y-100532772D01*
X89967620Y-100888100D01*
X90120476Y-101143124D01*
X90169694Y-101225239D01*
X90384776Y-101515244D01*
X90403846Y-101540956D01*
X90667807Y-101832192D01*
X90959043Y-102096153D01*
X90959049Y-102096158D01*
X91274761Y-102330306D01*
X91274763Y-102330307D01*
X91611899Y-102532379D01*
X91611902Y-102532380D01*
X91611903Y-102532381D01*
X91967228Y-102700438D01*
X92337316Y-102832857D01*
X92718600Y-102928364D01*
X93107409Y-102986038D01*
X93500000Y-103005325D01*
X93892591Y-102986038D01*
X94281400Y-102928364D01*
X94662684Y-102832857D01*
X95032772Y-102700438D01*
X95388097Y-102532381D01*
X95725239Y-102330306D01*
X96040951Y-102096158D01*
X96332192Y-101832192D01*
X96596158Y-101540951D01*
X96830306Y-101225239D01*
X97032381Y-100888097D01*
X97200438Y-100532772D01*
X97332857Y-100162684D01*
X97428364Y-99781400D01*
X97486038Y-99392591D01*
X97505325Y-99000000D01*
X97486038Y-98607409D01*
X97428364Y-98218600D01*
X97332857Y-97837316D01*
X97200438Y-97467228D01*
X97032381Y-97111903D01*
X96996174Y-97051495D01*
X96978594Y-96983873D01*
X97000363Y-96917482D01*
X97014847Y-96900071D01*
X98917270Y-94997648D01*
X100959500Y-94997648D01*
X100959500Y-96002351D01*
X100991522Y-96204534D01*
X101054781Y-96399223D01*
X101147715Y-96581613D01*
X101268028Y-96747213D01*
X101412786Y-96891971D01*
X101539281Y-96983873D01*
X101578390Y-97012287D01*
X101691652Y-97069997D01*
X101760776Y-97105218D01*
X101760778Y-97105218D01*
X101760781Y-97105220D01*
X101865137Y-97139127D01*
X101955465Y-97168477D01*
X102056557Y-97184488D01*
X102157648Y-97200500D01*
X102157649Y-97200500D01*
X102362351Y-97200500D01*
X102362352Y-97200500D01*
X102564534Y-97168477D01*
X102759219Y-97105220D01*
X102941610Y-97012287D01*
X103072099Y-96917482D01*
X103107213Y-96891971D01*
X103107215Y-96891968D01*
X103107219Y-96891966D01*
X103251966Y-96747219D01*
X103251968Y-96747215D01*
X103251971Y-96747213D01*
X103372284Y-96581614D01*
X103372286Y-96581611D01*
X103372287Y-96581610D01*
X103419795Y-96488369D01*
X103467770Y-96437574D01*
X103535591Y-96420779D01*
X103601725Y-96443316D01*
X103640765Y-96488370D01*
X103688140Y-96581349D01*
X103808417Y-96746894D01*
X103808417Y-96746895D01*
X103953104Y-96891582D01*
X104118650Y-97011859D01*
X104300968Y-97104754D01*
X104495578Y-97167988D01*
X104550000Y-97176607D01*
X104550000Y-95815686D01*
X104554394Y-95820080D01*
X104645606Y-95872741D01*
X104747339Y-95900000D01*
X104852661Y-95900000D01*
X104954394Y-95872741D01*
X105045606Y-95820080D01*
X105050000Y-95815686D01*
X105050000Y-97176606D01*
X105104421Y-97167988D01*
X105299031Y-97104754D01*
X105481349Y-97011859D01*
X105646894Y-96891582D01*
X105646895Y-96891582D01*
X105791582Y-96746895D01*
X105791582Y-96746894D01*
X105911861Y-96581347D01*
X105959234Y-96488371D01*
X106007208Y-96437575D01*
X106075028Y-96420779D01*
X106141164Y-96443316D01*
X106180203Y-96488369D01*
X106227713Y-96581611D01*
X106348028Y-96747213D01*
X106492786Y-96891971D01*
X106619281Y-96983873D01*
X106658390Y-97012287D01*
X106771652Y-97069997D01*
X106840776Y-97105218D01*
X106840778Y-97105218D01*
X106840781Y-97105220D01*
X106945137Y-97139127D01*
X107035465Y-97168477D01*
X107136557Y-97184488D01*
X107237648Y-97200500D01*
X107237649Y-97200500D01*
X107442351Y-97200500D01*
X107442352Y-97200500D01*
X107644534Y-97168477D01*
X107839219Y-97105220D01*
X108021610Y-97012287D01*
X108152099Y-96917482D01*
X108187213Y-96891971D01*
X108187215Y-96891968D01*
X108187219Y-96891966D01*
X108331966Y-96747219D01*
X108331968Y-96747215D01*
X108331971Y-96747213D01*
X108452284Y-96581614D01*
X108452286Y-96581611D01*
X108452287Y-96581610D01*
X108499795Y-96488369D01*
X108547770Y-96437574D01*
X108615591Y-96420779D01*
X108681725Y-96443316D01*
X108720765Y-96488370D01*
X108768140Y-96581349D01*
X108888417Y-96746894D01*
X108888417Y-96746895D01*
X109033104Y-96891582D01*
X109198650Y-97011859D01*
X109380968Y-97104754D01*
X109575578Y-97167988D01*
X109630000Y-97176607D01*
X109630000Y-95815686D01*
X109634394Y-95820080D01*
X109725606Y-95872741D01*
X109827339Y-95900000D01*
X109932661Y-95900000D01*
X110034394Y-95872741D01*
X110125606Y-95820080D01*
X110130000Y-95815686D01*
X110130000Y-97176606D01*
X110184421Y-97167988D01*
X110379031Y-97104754D01*
X110561349Y-97011859D01*
X110726894Y-96891582D01*
X110726895Y-96891582D01*
X110871582Y-96746895D01*
X110871582Y-96746894D01*
X110991861Y-96581347D01*
X111039234Y-96488371D01*
X111087208Y-96437575D01*
X111155028Y-96420779D01*
X111221164Y-96443316D01*
X111260203Y-96488369D01*
X111307713Y-96581611D01*
X111428028Y-96747213D01*
X111572786Y-96891971D01*
X111699281Y-96983873D01*
X111738390Y-97012287D01*
X111851652Y-97069997D01*
X111920776Y-97105218D01*
X111920778Y-97105218D01*
X111920781Y-97105220D01*
X112025137Y-97139127D01*
X112115465Y-97168477D01*
X112216557Y-97184488D01*
X112317648Y-97200500D01*
X112317649Y-97200500D01*
X112522351Y-97200500D01*
X112522352Y-97200500D01*
X112724534Y-97168477D01*
X112919219Y-97105220D01*
X113101610Y-97012287D01*
X113232099Y-96917482D01*
X113267213Y-96891971D01*
X113267215Y-96891968D01*
X113267219Y-96891966D01*
X113411966Y-96747219D01*
X113411968Y-96747215D01*
X113411971Y-96747213D01*
X113532284Y-96581614D01*
X113532286Y-96581611D01*
X113532287Y-96581610D01*
X113579795Y-96488369D01*
X113627770Y-96437574D01*
X113695591Y-96420779D01*
X113761725Y-96443316D01*
X113800765Y-96488370D01*
X113848140Y-96581349D01*
X113968417Y-96746894D01*
X113968417Y-96746895D01*
X114113104Y-96891582D01*
X114278650Y-97011859D01*
X114460968Y-97104754D01*
X114655578Y-97167988D01*
X114710000Y-97176607D01*
X114710000Y-95815686D01*
X114714394Y-95820080D01*
X114805606Y-95872741D01*
X114907339Y-95900000D01*
X115012661Y-95900000D01*
X115114394Y-95872741D01*
X115205606Y-95820080D01*
X115210000Y-95815686D01*
X115210000Y-97176606D01*
X115264421Y-97167988D01*
X115459031Y-97104754D01*
X115641349Y-97011859D01*
X115806894Y-96891582D01*
X115806895Y-96891582D01*
X115951582Y-96746895D01*
X115951582Y-96746894D01*
X116071861Y-96581347D01*
X116119234Y-96488371D01*
X116167208Y-96437575D01*
X116235028Y-96420779D01*
X116301164Y-96443316D01*
X116340203Y-96488369D01*
X116387713Y-96581611D01*
X116508028Y-96747213D01*
X116652786Y-96891971D01*
X116779281Y-96983873D01*
X116818390Y-97012287D01*
X116931652Y-97069997D01*
X117000776Y-97105218D01*
X117000778Y-97105218D01*
X117000781Y-97105220D01*
X117105137Y-97139127D01*
X117195465Y-97168477D01*
X117296557Y-97184488D01*
X117397648Y-97200500D01*
X117397649Y-97200500D01*
X117602351Y-97200500D01*
X117602352Y-97200500D01*
X117804534Y-97168477D01*
X117999219Y-97105220D01*
X118181610Y-97012287D01*
X118312099Y-96917482D01*
X118347213Y-96891971D01*
X118347215Y-96891968D01*
X118347219Y-96891966D01*
X118491966Y-96747219D01*
X118491968Y-96747215D01*
X118491971Y-96747213D01*
X118612284Y-96581614D01*
X118612286Y-96581611D01*
X118612287Y-96581610D01*
X118659795Y-96488369D01*
X118707770Y-96437574D01*
X118775591Y-96420779D01*
X118841725Y-96443316D01*
X118880765Y-96488370D01*
X118928140Y-96581349D01*
X119048417Y-96746894D01*
X119048417Y-96746895D01*
X119193104Y-96891582D01*
X119358650Y-97011859D01*
X119540968Y-97104754D01*
X119735578Y-97167988D01*
X119790000Y-97176607D01*
X119790000Y-95815686D01*
X119794394Y-95820080D01*
X119885606Y-95872741D01*
X119987339Y-95900000D01*
X120092661Y-95900000D01*
X120194394Y-95872741D01*
X120285606Y-95820080D01*
X120290000Y-95815686D01*
X120290000Y-97176607D01*
X120344421Y-97167988D01*
X120539031Y-97104754D01*
X120721349Y-97011859D01*
X120886894Y-96891582D01*
X120886895Y-96891582D01*
X121031582Y-96746895D01*
X121031582Y-96746894D01*
X121151861Y-96581347D01*
X121199234Y-96488371D01*
X121247208Y-96437575D01*
X121315028Y-96420779D01*
X121381164Y-96443316D01*
X121420203Y-96488369D01*
X121467713Y-96581611D01*
X121588028Y-96747213D01*
X121732786Y-96891971D01*
X121859281Y-96983873D01*
X121898390Y-97012287D01*
X122011652Y-97069997D01*
X122080776Y-97105218D01*
X122080778Y-97105218D01*
X122080781Y-97105220D01*
X122185137Y-97139127D01*
X122275465Y-97168477D01*
X122376557Y-97184488D01*
X122477648Y-97200500D01*
X122477649Y-97200500D01*
X122682351Y-97200500D01*
X122682352Y-97200500D01*
X122884534Y-97168477D01*
X123079219Y-97105220D01*
X123261610Y-97012287D01*
X123392099Y-96917482D01*
X123427213Y-96891971D01*
X123427215Y-96891968D01*
X123427219Y-96891966D01*
X123571966Y-96747219D01*
X123571968Y-96747215D01*
X123571971Y-96747213D01*
X123692284Y-96581614D01*
X123692286Y-96581611D01*
X123692287Y-96581610D01*
X123739516Y-96488917D01*
X123787489Y-96438123D01*
X123855310Y-96421328D01*
X123921445Y-96443865D01*
X123960485Y-96488919D01*
X124007715Y-96581614D01*
X124128028Y-96747213D01*
X124272786Y-96891971D01*
X124399281Y-96983873D01*
X124438390Y-97012287D01*
X124551652Y-97069997D01*
X124620776Y-97105218D01*
X124620778Y-97105218D01*
X124620781Y-97105220D01*
X124725137Y-97139127D01*
X124815465Y-97168477D01*
X124916557Y-97184488D01*
X125017648Y-97200500D01*
X125017649Y-97200500D01*
X125222351Y-97200500D01*
X125222352Y-97200500D01*
X125424534Y-97168477D01*
X125619219Y-97105220D01*
X125688348Y-97069997D01*
X134269723Y-97069997D01*
X134269723Y-97070002D01*
X134288793Y-97287975D01*
X134288793Y-97287979D01*
X134345422Y-97499322D01*
X134345424Y-97499326D01*
X134345425Y-97499330D01*
X134391661Y-97598484D01*
X134437897Y-97697638D01*
X134437898Y-97697639D01*
X134563402Y-97876877D01*
X134718123Y-98031598D01*
X134897361Y-98157102D01*
X135095670Y-98249575D01*
X135307023Y-98306207D01*
X135489926Y-98322208D01*
X135524998Y-98325277D01*
X135525000Y-98325277D01*
X135525002Y-98325277D01*
X135553254Y-98322805D01*
X135742977Y-98306207D01*
X135954330Y-98249575D01*
X136152639Y-98157102D01*
X136331877Y-98031598D01*
X136486598Y-97876877D01*
X136612102Y-97697639D01*
X136704575Y-97499330D01*
X136761207Y-97287977D01*
X136780277Y-97070000D01*
X136761207Y-96852023D01*
X136704575Y-96640670D01*
X136612102Y-96442362D01*
X136612100Y-96442359D01*
X136612099Y-96442357D01*
X136486599Y-96263124D01*
X136418393Y-96194918D01*
X136331877Y-96108402D01*
X136152639Y-95982898D01*
X136152640Y-95982898D01*
X136152638Y-95982897D01*
X136053484Y-95936661D01*
X135954330Y-95890425D01*
X135954326Y-95890424D01*
X135954322Y-95890422D01*
X135742977Y-95833793D01*
X135525002Y-95814723D01*
X135524998Y-95814723D01*
X135379682Y-95827436D01*
X135307023Y-95833793D01*
X135307020Y-95833793D01*
X135095677Y-95890422D01*
X135095668Y-95890426D01*
X134897361Y-95982898D01*
X134897357Y-95982900D01*
X134718121Y-96108402D01*
X134563402Y-96263121D01*
X134437900Y-96442357D01*
X134437898Y-96442361D01*
X134345426Y-96640668D01*
X134345422Y-96640677D01*
X134288793Y-96852020D01*
X134288793Y-96852024D01*
X134269723Y-97069997D01*
X125688348Y-97069997D01*
X125801610Y-97012287D01*
X125932099Y-96917482D01*
X125967213Y-96891971D01*
X125967215Y-96891968D01*
X125967219Y-96891966D01*
X126111966Y-96747219D01*
X126111968Y-96747215D01*
X126111971Y-96747213D01*
X126164732Y-96674590D01*
X126232287Y-96581610D01*
X126325220Y-96399219D01*
X126388477Y-96204534D01*
X126420500Y-96002352D01*
X126420500Y-94997648D01*
X126388477Y-94795466D01*
X126325220Y-94600781D01*
X126325218Y-94600778D01*
X126325218Y-94600776D01*
X126232419Y-94418650D01*
X126232287Y-94418390D01*
X126224556Y-94407749D01*
X126111971Y-94252786D01*
X125967213Y-94108028D01*
X125801613Y-93987715D01*
X125801612Y-93987714D01*
X125801610Y-93987713D01*
X125744653Y-93958691D01*
X125619223Y-93894781D01*
X125424534Y-93831522D01*
X125249995Y-93803878D01*
X125222352Y-93799500D01*
X125017648Y-93799500D01*
X124993329Y-93803351D01*
X124815465Y-93831522D01*
X124620776Y-93894781D01*
X124438386Y-93987715D01*
X124272786Y-94108028D01*
X124128028Y-94252786D01*
X124007715Y-94418386D01*
X123960485Y-94511080D01*
X123912510Y-94561876D01*
X123844689Y-94578671D01*
X123778554Y-94556134D01*
X123739515Y-94511080D01*
X123692419Y-94418650D01*
X123692287Y-94418390D01*
X123684556Y-94407749D01*
X123571971Y-94252786D01*
X123427213Y-94108028D01*
X123261613Y-93987715D01*
X123261612Y-93987714D01*
X123261610Y-93987713D01*
X123204653Y-93958691D01*
X123079223Y-93894781D01*
X122884534Y-93831522D01*
X122709995Y-93803878D01*
X122682352Y-93799500D01*
X122477648Y-93799500D01*
X122453329Y-93803351D01*
X122275465Y-93831522D01*
X122080776Y-93894781D01*
X121898386Y-93987715D01*
X121732786Y-94108028D01*
X121588028Y-94252786D01*
X121467713Y-94418388D01*
X121420203Y-94511630D01*
X121372228Y-94562426D01*
X121304407Y-94579220D01*
X121238272Y-94556682D01*
X121199234Y-94511628D01*
X121151861Y-94418652D01*
X121031582Y-94253105D01*
X121031582Y-94253104D01*
X120886895Y-94108417D01*
X120721349Y-93988140D01*
X120539029Y-93895244D01*
X120344413Y-93832009D01*
X120290000Y-93823390D01*
X120290000Y-95184314D01*
X120285606Y-95179920D01*
X120194394Y-95127259D01*
X120092661Y-95100000D01*
X119987339Y-95100000D01*
X119885606Y-95127259D01*
X119794394Y-95179920D01*
X119790000Y-95184314D01*
X119790000Y-93823390D01*
X119735586Y-93832009D01*
X119540970Y-93895244D01*
X119358650Y-93988140D01*
X119193105Y-94108417D01*
X119193104Y-94108417D01*
X119048417Y-94253104D01*
X119048417Y-94253105D01*
X118928140Y-94418650D01*
X118880765Y-94511629D01*
X118832790Y-94562425D01*
X118764969Y-94579220D01*
X118698834Y-94556682D01*
X118659795Y-94511629D01*
X118612419Y-94418650D01*
X118612287Y-94418390D01*
X118604556Y-94407749D01*
X118491971Y-94252786D01*
X118347213Y-94108028D01*
X118181613Y-93987715D01*
X118181612Y-93987714D01*
X118181610Y-93987713D01*
X118124653Y-93958691D01*
X117999223Y-93894781D01*
X117804534Y-93831522D01*
X117629995Y-93803878D01*
X117602352Y-93799500D01*
X117397648Y-93799500D01*
X117373329Y-93803351D01*
X117195465Y-93831522D01*
X117000776Y-93894781D01*
X116818386Y-93987715D01*
X116652786Y-94108028D01*
X116508028Y-94252786D01*
X116387713Y-94418388D01*
X116340203Y-94511630D01*
X116292228Y-94562426D01*
X116224407Y-94579220D01*
X116158272Y-94556682D01*
X116119234Y-94511628D01*
X116071861Y-94418652D01*
X115951582Y-94253105D01*
X115951582Y-94253104D01*
X115806895Y-94108417D01*
X115641349Y-93988140D01*
X115459029Y-93895244D01*
X115264413Y-93832009D01*
X115210000Y-93823390D01*
X115210000Y-95184314D01*
X115205606Y-95179920D01*
X115114394Y-95127259D01*
X115012661Y-95100000D01*
X114907339Y-95100000D01*
X114805606Y-95127259D01*
X114714394Y-95179920D01*
X114710000Y-95184314D01*
X114710000Y-93823390D01*
X114655586Y-93832009D01*
X114460970Y-93895244D01*
X114278650Y-93988140D01*
X114113105Y-94108417D01*
X114113104Y-94108417D01*
X113968417Y-94253104D01*
X113968417Y-94253105D01*
X113848140Y-94418650D01*
X113800765Y-94511629D01*
X113752790Y-94562425D01*
X113684969Y-94579220D01*
X113618834Y-94556682D01*
X113579795Y-94511629D01*
X113532419Y-94418650D01*
X113532287Y-94418390D01*
X113524556Y-94407749D01*
X113411971Y-94252786D01*
X113267213Y-94108028D01*
X113101613Y-93987715D01*
X113101612Y-93987714D01*
X113101610Y-93987713D01*
X113044653Y-93958691D01*
X112919223Y-93894781D01*
X112724534Y-93831522D01*
X112549995Y-93803878D01*
X112522352Y-93799500D01*
X112317648Y-93799500D01*
X112293329Y-93803351D01*
X112115465Y-93831522D01*
X111920776Y-93894781D01*
X111738386Y-93987715D01*
X111572786Y-94108028D01*
X111428028Y-94252786D01*
X111307713Y-94418388D01*
X111260203Y-94511630D01*
X111212228Y-94562426D01*
X111144407Y-94579220D01*
X111078272Y-94556682D01*
X111039234Y-94511628D01*
X110991861Y-94418652D01*
X110871582Y-94253105D01*
X110871582Y-94253104D01*
X110726895Y-94108417D01*
X110561349Y-93988140D01*
X110379029Y-93895244D01*
X110184413Y-93832009D01*
X110130000Y-93823390D01*
X110130000Y-95184314D01*
X110125606Y-95179920D01*
X110034394Y-95127259D01*
X109932661Y-95100000D01*
X109827339Y-95100000D01*
X109725606Y-95127259D01*
X109634394Y-95179920D01*
X109630000Y-95184314D01*
X109630000Y-93823390D01*
X109575586Y-93832009D01*
X109380970Y-93895244D01*
X109198650Y-93988140D01*
X109033105Y-94108417D01*
X109033104Y-94108417D01*
X108888417Y-94253104D01*
X108888417Y-94253105D01*
X108768140Y-94418650D01*
X108720765Y-94511629D01*
X108672790Y-94562425D01*
X108604969Y-94579220D01*
X108538834Y-94556682D01*
X108499795Y-94511629D01*
X108452419Y-94418650D01*
X108452287Y-94418390D01*
X108444556Y-94407749D01*
X108331971Y-94252786D01*
X108187213Y-94108028D01*
X108021613Y-93987715D01*
X108021612Y-93987714D01*
X108021610Y-93987713D01*
X107964653Y-93958691D01*
X107839223Y-93894781D01*
X107644534Y-93831522D01*
X107469995Y-93803878D01*
X107442352Y-93799500D01*
X107237648Y-93799500D01*
X107213329Y-93803351D01*
X107035465Y-93831522D01*
X106840776Y-93894781D01*
X106658386Y-93987715D01*
X106492786Y-94108028D01*
X106348028Y-94252786D01*
X106227713Y-94418388D01*
X106180203Y-94511630D01*
X106132228Y-94562426D01*
X106064407Y-94579220D01*
X105998272Y-94556682D01*
X105959234Y-94511628D01*
X105911861Y-94418652D01*
X105791582Y-94253105D01*
X105791582Y-94253104D01*
X105646895Y-94108417D01*
X105481349Y-93988140D01*
X105299029Y-93895244D01*
X105104413Y-93832009D01*
X105050000Y-93823390D01*
X105050000Y-95184314D01*
X105045606Y-95179920D01*
X104954394Y-95127259D01*
X104852661Y-95100000D01*
X104747339Y-95100000D01*
X104645606Y-95127259D01*
X104554394Y-95179920D01*
X104550000Y-95184314D01*
X104550000Y-93823390D01*
X104495586Y-93832009D01*
X104300970Y-93895244D01*
X104118650Y-93988140D01*
X103953105Y-94108417D01*
X103953104Y-94108417D01*
X103808417Y-94253104D01*
X103808417Y-94253105D01*
X103688140Y-94418650D01*
X103640765Y-94511629D01*
X103592790Y-94562425D01*
X103524969Y-94579220D01*
X103458834Y-94556682D01*
X103419795Y-94511629D01*
X103372419Y-94418650D01*
X103372287Y-94418390D01*
X103364556Y-94407749D01*
X103251971Y-94252786D01*
X103107213Y-94108028D01*
X102941613Y-93987715D01*
X102941612Y-93987714D01*
X102941610Y-93987713D01*
X102884653Y-93958691D01*
X102759223Y-93894781D01*
X102564534Y-93831522D01*
X102389995Y-93803878D01*
X102362352Y-93799500D01*
X102157648Y-93799500D01*
X102133329Y-93803351D01*
X101955465Y-93831522D01*
X101760776Y-93894781D01*
X101578386Y-93987715D01*
X101412786Y-94108028D01*
X101268028Y-94252786D01*
X101147715Y-94418386D01*
X101054781Y-94600776D01*
X100991522Y-94795465D01*
X100959500Y-94997648D01*
X98917270Y-94997648D01*
X112036208Y-81878711D01*
X142904500Y-81878711D01*
X142904500Y-82121288D01*
X142936161Y-82361785D01*
X142998947Y-82596104D01*
X143016079Y-82637463D01*
X143091776Y-82820212D01*
X143213064Y-83030289D01*
X143213066Y-83030292D01*
X143213067Y-83030293D01*
X143360733Y-83222736D01*
X143360739Y-83222743D01*
X143532256Y-83394260D01*
X143532263Y-83394266D01*
X143645321Y-83481018D01*
X143724711Y-83541936D01*
X143934788Y-83663224D01*
X144158900Y-83756054D01*
X144393211Y-83818838D01*
X144573586Y-83842584D01*
X144633711Y-83850500D01*
X144633712Y-83850500D01*
X144876289Y-83850500D01*
X144924388Y-83844167D01*
X145116789Y-83818838D01*
X145351100Y-83756054D01*
X145575212Y-83663224D01*
X145785289Y-83541936D01*
X145977738Y-83394265D01*
X146149265Y-83222738D01*
X146296936Y-83030289D01*
X146418224Y-82820212D01*
X146511054Y-82596100D01*
X146573838Y-82361789D01*
X146605500Y-82121288D01*
X146605500Y-82000000D01*
X150245172Y-82000000D01*
X150264462Y-82294312D01*
X150264464Y-82294324D01*
X150322001Y-82583584D01*
X150322005Y-82583599D01*
X150416812Y-82862888D01*
X150547258Y-83127406D01*
X150547265Y-83127419D01*
X150711123Y-83372649D01*
X150740405Y-83406040D01*
X151637425Y-82509019D01*
X151723249Y-82637463D01*
X151862537Y-82776751D01*
X151990978Y-82862573D01*
X151093958Y-83759593D01*
X151127350Y-83788876D01*
X151372580Y-83952734D01*
X151372593Y-83952741D01*
X151637111Y-84083187D01*
X151916400Y-84177994D01*
X151916415Y-84177998D01*
X152205675Y-84235535D01*
X152205687Y-84235537D01*
X152500000Y-84254827D01*
X152794312Y-84235537D01*
X152794324Y-84235535D01*
X153083584Y-84177998D01*
X153083599Y-84177994D01*
X153362888Y-84083187D01*
X153627406Y-83952741D01*
X153627419Y-83952734D01*
X153872648Y-83788877D01*
X153906039Y-83759593D01*
X153009020Y-82862573D01*
X153137463Y-82776751D01*
X153276751Y-82637463D01*
X153362573Y-82509020D01*
X154259593Y-83406039D01*
X154288877Y-83372648D01*
X154452734Y-83127419D01*
X154452741Y-83127406D01*
X154583187Y-82862888D01*
X154677994Y-82583599D01*
X154677998Y-82583584D01*
X154735535Y-82294324D01*
X154735537Y-82294312D01*
X154751765Y-82046725D01*
X154769034Y-81999568D01*
X154756523Y-81980099D01*
X154751765Y-81953274D01*
X154735537Y-81705687D01*
X154735535Y-81705675D01*
X154677998Y-81416415D01*
X154677994Y-81416400D01*
X154583187Y-81137111D01*
X154452741Y-80872593D01*
X154452734Y-80872580D01*
X154288876Y-80627350D01*
X154259593Y-80593958D01*
X153362573Y-81490978D01*
X153276751Y-81362537D01*
X153137463Y-81223249D01*
X153009020Y-81137426D01*
X153906040Y-80240405D01*
X153872649Y-80211123D01*
X153627419Y-80047265D01*
X153627406Y-80047258D01*
X153362888Y-79916812D01*
X153083599Y-79822005D01*
X153083584Y-79822001D01*
X152794324Y-79764464D01*
X152794312Y-79764462D01*
X152500000Y-79745172D01*
X152205687Y-79764462D01*
X152205675Y-79764464D01*
X151916415Y-79822001D01*
X151916400Y-79822005D01*
X151637111Y-79916812D01*
X151372593Y-80047258D01*
X151372580Y-80047265D01*
X151127346Y-80211126D01*
X151127339Y-80211131D01*
X151093959Y-80240403D01*
X151093959Y-80240405D01*
X151990979Y-81137425D01*
X151862537Y-81223249D01*
X151723249Y-81362537D01*
X151637426Y-81490979D01*
X150740405Y-80593959D01*
X150740403Y-80593959D01*
X150711131Y-80627339D01*
X150711126Y-80627346D01*
X150547265Y-80872580D01*
X150547258Y-80872593D01*
X150416812Y-81137111D01*
X150322005Y-81416400D01*
X150322001Y-81416415D01*
X150264464Y-81705675D01*
X150264462Y-81705687D01*
X150245172Y-82000000D01*
X146605500Y-82000000D01*
X146605500Y-81878712D01*
X146573838Y-81638211D01*
X146511054Y-81403900D01*
X146418224Y-81179788D01*
X146296936Y-80969711D01*
X146149265Y-80777262D01*
X146149260Y-80777256D01*
X145977743Y-80605739D01*
X145977736Y-80605733D01*
X145785293Y-80458067D01*
X145785292Y-80458066D01*
X145785289Y-80458064D01*
X145575212Y-80336776D01*
X145575205Y-80336773D01*
X145351104Y-80243947D01*
X145116785Y-80181161D01*
X144876289Y-80149500D01*
X144876288Y-80149500D01*
X144633712Y-80149500D01*
X144633711Y-80149500D01*
X144393214Y-80181161D01*
X144158895Y-80243947D01*
X143934794Y-80336773D01*
X143934785Y-80336777D01*
X143724706Y-80458067D01*
X143532263Y-80605733D01*
X143532256Y-80605739D01*
X143360739Y-80777256D01*
X143360733Y-80777263D01*
X143213067Y-80969706D01*
X143091777Y-81179785D01*
X143091773Y-81179794D01*
X142998947Y-81403895D01*
X142936161Y-81638214D01*
X142904500Y-81878711D01*
X112036208Y-81878711D01*
X124892785Y-69022135D01*
X128589500Y-69022135D01*
X128589500Y-71657870D01*
X128589501Y-71657876D01*
X128595908Y-71717483D01*
X128646202Y-71852328D01*
X128646206Y-71852335D01*
X128732452Y-71967544D01*
X128732455Y-71967547D01*
X128847664Y-72053793D01*
X128847671Y-72053797D01*
X128982517Y-72104091D01*
X128982516Y-72104091D01*
X128989444Y-72104835D01*
X129042127Y-72110500D01*
X131677872Y-72110499D01*
X131737483Y-72104091D01*
X131872331Y-72053796D01*
X131987546Y-71967546D01*
X132073796Y-71852331D01*
X132124091Y-71717483D01*
X132130500Y-71657873D01*
X132130499Y-69022128D01*
X132124091Y-68962517D01*
X132073796Y-68827669D01*
X132073795Y-68827668D01*
X132073793Y-68827664D01*
X131987547Y-68712455D01*
X131987544Y-68712452D01*
X131872335Y-68626206D01*
X131872328Y-68626202D01*
X131737482Y-68575908D01*
X131737483Y-68575908D01*
X131677883Y-68569501D01*
X131677881Y-68569500D01*
X131677873Y-68569500D01*
X131677864Y-68569500D01*
X129042129Y-68569500D01*
X129042123Y-68569501D01*
X128982516Y-68575908D01*
X128847671Y-68626202D01*
X128847664Y-68626206D01*
X128732455Y-68712452D01*
X128732452Y-68712455D01*
X128646206Y-68827664D01*
X128646202Y-68827671D01*
X128595908Y-68962517D01*
X128591306Y-69005325D01*
X128589501Y-69022123D01*
X128589500Y-69022135D01*
X124892785Y-69022135D01*
X128914921Y-65000000D01*
X135994675Y-65000000D01*
X136013962Y-65392591D01*
X136013962Y-65392597D01*
X136013963Y-65392599D01*
X136071637Y-65781406D01*
X136167143Y-66162684D01*
X136299561Y-66532770D01*
X136299562Y-66532772D01*
X136467620Y-66888100D01*
X136623099Y-67147500D01*
X136669694Y-67225239D01*
X136765793Y-67354814D01*
X136903846Y-67540956D01*
X137167807Y-67832192D01*
X137459043Y-68096153D01*
X137459049Y-68096158D01*
X137774761Y-68330306D01*
X137887141Y-68397664D01*
X138111899Y-68532379D01*
X138111902Y-68532380D01*
X138111903Y-68532381D01*
X138467228Y-68700438D01*
X138837316Y-68832857D01*
X139218600Y-68928364D01*
X139607409Y-68986038D01*
X140000000Y-69005325D01*
X140392591Y-68986038D01*
X140781400Y-68928364D01*
X141162684Y-68832857D01*
X141532772Y-68700438D01*
X141888097Y-68532381D01*
X142225239Y-68330306D01*
X142540951Y-68096158D01*
X142832192Y-67832192D01*
X143096158Y-67540951D01*
X143330306Y-67225239D01*
X143532381Y-66888097D01*
X143700438Y-66532772D01*
X143832857Y-66162684D01*
X143928364Y-65781400D01*
X143986038Y-65392591D01*
X144005325Y-65000000D01*
X143986038Y-64607409D01*
X143928364Y-64218600D01*
X143832857Y-63837316D01*
X143700438Y-63467228D01*
X143532381Y-63111903D01*
X143443529Y-62963663D01*
X143330307Y-62774763D01*
X143330306Y-62774761D01*
X143096158Y-62459049D01*
X143046347Y-62404091D01*
X142832192Y-62167807D01*
X142540956Y-61903846D01*
X142475549Y-61855337D01*
X142225239Y-61669694D01*
X142225236Y-61669692D01*
X141888100Y-61467620D01*
X141532772Y-61299562D01*
X141532770Y-61299561D01*
X141162684Y-61167143D01*
X140781406Y-61071637D01*
X140781401Y-61071636D01*
X140781400Y-61071636D01*
X140637256Y-61050254D01*
X140392599Y-61013963D01*
X140392597Y-61013962D01*
X140392591Y-61013962D01*
X140000000Y-60994675D01*
X139607409Y-61013962D01*
X139607403Y-61013962D01*
X139607400Y-61013963D01*
X139218593Y-61071637D01*
X138837315Y-61167143D01*
X138467229Y-61299561D01*
X138467227Y-61299562D01*
X138111899Y-61467620D01*
X137774763Y-61669692D01*
X137459043Y-61903846D01*
X137167807Y-62167807D01*
X136903846Y-62459043D01*
X136669692Y-62774763D01*
X136467620Y-63111899D01*
X136299562Y-63467227D01*
X136299561Y-63467229D01*
X136167143Y-63837315D01*
X136071637Y-64218593D01*
X136071636Y-64218600D01*
X136013962Y-64607409D01*
X135994675Y-65000000D01*
X128914921Y-65000000D01*
X131417140Y-62497781D01*
X131438637Y-62465608D01*
X131492249Y-62420803D01*
X131541739Y-62410499D01*
X131957871Y-62410499D01*
X131957872Y-62410499D01*
X132017483Y-62404091D01*
X132152331Y-62353796D01*
X132267546Y-62267546D01*
X132353796Y-62152331D01*
X132404091Y-62017483D01*
X132410500Y-61957873D01*
X132410499Y-59322128D01*
X132404091Y-59262517D01*
X132386678Y-59215832D01*
X132381695Y-59146142D01*
X132415180Y-59084819D01*
X132476503Y-59051334D01*
X132502861Y-59048500D01*
X145875500Y-59048500D01*
X145942539Y-59068185D01*
X145988294Y-59120989D01*
X145999500Y-59172500D01*
X145999500Y-67613891D01*
X146033608Y-67741187D01*
X146066554Y-67798250D01*
X146099500Y-67855314D01*
X146192686Y-67948500D01*
X146306814Y-68014392D01*
X146434108Y-68048500D01*
X154875500Y-68048500D01*
X154942539Y-68068185D01*
X154988294Y-68120989D01*
X154999500Y-68172500D01*
X154999500Y-81945164D01*
X154982614Y-82002669D01*
X154996507Y-82027756D01*
X154999500Y-82054835D01*
X154999500Y-95910502D01*
X154979815Y-95977541D01*
X154927011Y-96023296D01*
X154882379Y-96034311D01*
X154658186Y-96046767D01*
X154648437Y-96047309D01*
X154641560Y-96047500D01*
X146434108Y-96047500D01*
X146306812Y-96081608D01*
X146192686Y-96147500D01*
X146192683Y-96147502D01*
X146099502Y-96240683D01*
X146099500Y-96240686D01*
X146033608Y-96354812D01*
X145999500Y-96482108D01*
X145999500Y-104923500D01*
X145979815Y-104990539D01*
X145927011Y-105036294D01*
X145875500Y-105047500D01*
X125361505Y-105047500D01*
X125294466Y-105027815D01*
X125248711Y-104975011D01*
X125238767Y-104905853D01*
X125267792Y-104842297D01*
X125326570Y-104804523D01*
X125342107Y-104801027D01*
X125424417Y-104787990D01*
X125619031Y-104724755D01*
X125801349Y-104631859D01*
X125966894Y-104511582D01*
X125966895Y-104511582D01*
X126111582Y-104366895D01*
X126111582Y-104366894D01*
X126231859Y-104201349D01*
X126324755Y-104019031D01*
X126387990Y-103824417D01*
X126420000Y-103622317D01*
X126420000Y-103370000D01*
X125435686Y-103370000D01*
X125440080Y-103365606D01*
X125492741Y-103274394D01*
X125520000Y-103172661D01*
X125520000Y-103067339D01*
X125492741Y-102965606D01*
X125440080Y-102874394D01*
X125435686Y-102870000D01*
X126420000Y-102870000D01*
X126420000Y-102617682D01*
X126387990Y-102415582D01*
X126324755Y-102220968D01*
X126231859Y-102038650D01*
X126167448Y-101949997D01*
X134269723Y-101949997D01*
X134269723Y-101950002D01*
X134288793Y-102167975D01*
X134288793Y-102167979D01*
X134345422Y-102379322D01*
X134345424Y-102379326D01*
X134345425Y-102379330D01*
X134362330Y-102415582D01*
X134437897Y-102577638D01*
X134437898Y-102577639D01*
X134563402Y-102756877D01*
X134718123Y-102911598D01*
X134897361Y-103037102D01*
X135095670Y-103129575D01*
X135307023Y-103186207D01*
X135489926Y-103202208D01*
X135524998Y-103205277D01*
X135525000Y-103205277D01*
X135525002Y-103205277D01*
X135553254Y-103202805D01*
X135742977Y-103186207D01*
X135954330Y-103129575D01*
X136152639Y-103037102D01*
X136331877Y-102911598D01*
X136486598Y-102756877D01*
X136612102Y-102577639D01*
X136704575Y-102379330D01*
X136761207Y-102167977D01*
X136780277Y-101950000D01*
X136761207Y-101732023D01*
X136704575Y-101520670D01*
X136612102Y-101322362D01*
X136612100Y-101322359D01*
X136612099Y-101322357D01*
X136486599Y-101143124D01*
X136486596Y-101143121D01*
X136331877Y-100988402D01*
X136152639Y-100862898D01*
X136152640Y-100862898D01*
X136152638Y-100862897D01*
X136053484Y-100816661D01*
X135954330Y-100770425D01*
X135954326Y-100770424D01*
X135954322Y-100770422D01*
X135742977Y-100713793D01*
X135525002Y-100694723D01*
X135524998Y-100694723D01*
X135379682Y-100707436D01*
X135307023Y-100713793D01*
X135307020Y-100713793D01*
X135095677Y-100770422D01*
X135095668Y-100770426D01*
X134897361Y-100862898D01*
X134897357Y-100862900D01*
X134718121Y-100988402D01*
X134563402Y-101143121D01*
X134437900Y-101322357D01*
X134437898Y-101322361D01*
X134345426Y-101520668D01*
X134345422Y-101520677D01*
X134288793Y-101732020D01*
X134288793Y-101732024D01*
X134269723Y-101949997D01*
X126167448Y-101949997D01*
X126111582Y-101873105D01*
X126111582Y-101873104D01*
X125966895Y-101728417D01*
X125801349Y-101608140D01*
X125619029Y-101515244D01*
X125424413Y-101452009D01*
X125370000Y-101443390D01*
X125370000Y-102804314D01*
X125365606Y-102799920D01*
X125274394Y-102747259D01*
X125172661Y-102720000D01*
X125067339Y-102720000D01*
X124965606Y-102747259D01*
X124874394Y-102799920D01*
X124870000Y-102804314D01*
X124870000Y-101443390D01*
X124815586Y-101452009D01*
X124620970Y-101515244D01*
X124438650Y-101608140D01*
X124273105Y-101728417D01*
X124273104Y-101728417D01*
X124128417Y-101873104D01*
X124128417Y-101873105D01*
X124008140Y-102038650D01*
X123960765Y-102131629D01*
X123912790Y-102182425D01*
X123844969Y-102199220D01*
X123778834Y-102176682D01*
X123739795Y-102131629D01*
X123692419Y-102038650D01*
X123692287Y-102038390D01*
X123684556Y-102027749D01*
X123571971Y-101872786D01*
X123427213Y-101728028D01*
X123261613Y-101607715D01*
X123261612Y-101607714D01*
X123261610Y-101607713D01*
X123173487Y-101562812D01*
X123079223Y-101514781D01*
X122884534Y-101451522D01*
X122709995Y-101423878D01*
X122682352Y-101419500D01*
X122477648Y-101419500D01*
X122453329Y-101423351D01*
X122275465Y-101451522D01*
X122080776Y-101514781D01*
X121898386Y-101607715D01*
X121732786Y-101728028D01*
X121588028Y-101872786D01*
X121467715Y-102038386D01*
X121420485Y-102131080D01*
X121372510Y-102181876D01*
X121304689Y-102198671D01*
X121238554Y-102176134D01*
X121199515Y-102131080D01*
X121181721Y-102096158D01*
X121152287Y-102038390D01*
X121144556Y-102027749D01*
X121031971Y-101872786D01*
X120887213Y-101728028D01*
X120721613Y-101607715D01*
X120721612Y-101607714D01*
X120721610Y-101607713D01*
X120633487Y-101562812D01*
X120539223Y-101514781D01*
X120344534Y-101451522D01*
X120169995Y-101423878D01*
X120142352Y-101419500D01*
X119937648Y-101419500D01*
X119913329Y-101423351D01*
X119735465Y-101451522D01*
X119540776Y-101514781D01*
X119358386Y-101607715D01*
X119192786Y-101728028D01*
X119048028Y-101872786D01*
X118927715Y-102038386D01*
X118880485Y-102131080D01*
X118832510Y-102181876D01*
X118764689Y-102198671D01*
X118698554Y-102176134D01*
X118659515Y-102131080D01*
X118641721Y-102096158D01*
X118612287Y-102038390D01*
X118604556Y-102027749D01*
X118491971Y-101872786D01*
X118347213Y-101728028D01*
X118181613Y-101607715D01*
X118181612Y-101607714D01*
X118181610Y-101607713D01*
X118093487Y-101562812D01*
X117999223Y-101514781D01*
X117804534Y-101451522D01*
X117629995Y-101423878D01*
X117602352Y-101419500D01*
X117397648Y-101419500D01*
X117373329Y-101423351D01*
X117195465Y-101451522D01*
X117000776Y-101514781D01*
X116818386Y-101607715D01*
X116652786Y-101728028D01*
X116508028Y-101872786D01*
X116387715Y-102038386D01*
X116340485Y-102131080D01*
X116292510Y-102181876D01*
X116224689Y-102198671D01*
X116158554Y-102176134D01*
X116119515Y-102131080D01*
X116101721Y-102096158D01*
X116072287Y-102038390D01*
X116064556Y-102027749D01*
X115951971Y-101872786D01*
X115807213Y-101728028D01*
X115641613Y-101607715D01*
X115641612Y-101607714D01*
X115641610Y-101607713D01*
X115553487Y-101562812D01*
X115459223Y-101514781D01*
X115264534Y-101451522D01*
X115089995Y-101423878D01*
X115062352Y-101419500D01*
X114857648Y-101419500D01*
X114833329Y-101423351D01*
X114655465Y-101451522D01*
X114460776Y-101514781D01*
X114278386Y-101607715D01*
X114112786Y-101728028D01*
X113968028Y-101872786D01*
X113847715Y-102038386D01*
X113800485Y-102131080D01*
X113752510Y-102181876D01*
X113684689Y-102198671D01*
X113618554Y-102176134D01*
X113579515Y-102131080D01*
X113561721Y-102096158D01*
X113532287Y-102038390D01*
X113524556Y-102027749D01*
X113411971Y-101872786D01*
X113267213Y-101728028D01*
X113101613Y-101607715D01*
X113101612Y-101607714D01*
X113101610Y-101607713D01*
X113013487Y-101562812D01*
X112919223Y-101514781D01*
X112724534Y-101451522D01*
X112549995Y-101423878D01*
X112522352Y-101419500D01*
X112317648Y-101419500D01*
X112293329Y-101423351D01*
X112115465Y-101451522D01*
X111920776Y-101514781D01*
X111738386Y-101607715D01*
X111572786Y-101728028D01*
X111428028Y-101872786D01*
X111307715Y-102038386D01*
X111260485Y-102131080D01*
X111212510Y-102181876D01*
X111144689Y-102198671D01*
X111078554Y-102176134D01*
X111039515Y-102131080D01*
X111021721Y-102096158D01*
X110992287Y-102038390D01*
X110984556Y-102027749D01*
X110871971Y-101872786D01*
X110727213Y-101728028D01*
X110561613Y-101607715D01*
X110561612Y-101607714D01*
X110561610Y-101607713D01*
X110473487Y-101562812D01*
X110379223Y-101514781D01*
X110184534Y-101451522D01*
X110009995Y-101423878D01*
X109982352Y-101419500D01*
X109777648Y-101419500D01*
X109753329Y-101423351D01*
X109575465Y-101451522D01*
X109380776Y-101514781D01*
X109198386Y-101607715D01*
X109032786Y-101728028D01*
X108888028Y-101872786D01*
X108767715Y-102038386D01*
X108720485Y-102131080D01*
X108672510Y-102181876D01*
X108604689Y-102198671D01*
X108538554Y-102176134D01*
X108499515Y-102131080D01*
X108481721Y-102096158D01*
X108452287Y-102038390D01*
X108444556Y-102027749D01*
X108331971Y-101872786D01*
X108187213Y-101728028D01*
X108021613Y-101607715D01*
X108021612Y-101607714D01*
X108021610Y-101607713D01*
X107933487Y-101562812D01*
X107839223Y-101514781D01*
X107644534Y-101451522D01*
X107469995Y-101423878D01*
X107442352Y-101419500D01*
X107237648Y-101419500D01*
X107213329Y-101423351D01*
X107035465Y-101451522D01*
X106840776Y-101514781D01*
X106658386Y-101607715D01*
X106492786Y-101728028D01*
X106348028Y-101872786D01*
X106227715Y-102038386D01*
X106180485Y-102131080D01*
X106132510Y-102181876D01*
X106064689Y-102198671D01*
X105998554Y-102176134D01*
X105959515Y-102131080D01*
X105941721Y-102096158D01*
X105912287Y-102038390D01*
X105904556Y-102027749D01*
X105791971Y-101872786D01*
X105647213Y-101728028D01*
X105481613Y-101607715D01*
X105481612Y-101607714D01*
X105481610Y-101607713D01*
X105393487Y-101562812D01*
X105299223Y-101514781D01*
X105104534Y-101451522D01*
X104929995Y-101423878D01*
X104902352Y-101419500D01*
X104697648Y-101419500D01*
X104673329Y-101423351D01*
X104495465Y-101451522D01*
X104300776Y-101514781D01*
X104118386Y-101607715D01*
X103952786Y-101728028D01*
X103808032Y-101872782D01*
X103808026Y-101872789D01*
X103781227Y-101909675D01*
X103725897Y-101952341D01*
X103656284Y-101958319D01*
X103594489Y-101925712D01*
X103560132Y-101864873D01*
X103557620Y-101850043D01*
X103553596Y-101812620D01*
X103503354Y-101677913D01*
X103503350Y-101677906D01*
X103417190Y-101562812D01*
X103417187Y-101562809D01*
X103302093Y-101476649D01*
X103302086Y-101476645D01*
X103167379Y-101426403D01*
X103167372Y-101426401D01*
X103107844Y-101420000D01*
X102510000Y-101420000D01*
X102510000Y-102804314D01*
X102505606Y-102799920D01*
X102414394Y-102747259D01*
X102312661Y-102720000D01*
X102207339Y-102720000D01*
X102105606Y-102747259D01*
X102014394Y-102799920D01*
X102010000Y-102804314D01*
X102010000Y-101420000D01*
X101412155Y-101420000D01*
X101352627Y-101426401D01*
X101352620Y-101426403D01*
X101217913Y-101476645D01*
X101217906Y-101476649D01*
X101102812Y-101562809D01*
X101102809Y-101562812D01*
X101016649Y-101677906D01*
X101016645Y-101677913D01*
X100966403Y-101812620D01*
X100966401Y-101812627D01*
X100960000Y-101872155D01*
X100960000Y-102870000D01*
X101944314Y-102870000D01*
X101939920Y-102874394D01*
X101887259Y-102965606D01*
X101860000Y-103067339D01*
X101860000Y-103172661D01*
X101887259Y-103274394D01*
X101939920Y-103365606D01*
X101944314Y-103370000D01*
X100960000Y-103370000D01*
X100960000Y-104367844D01*
X100966401Y-104427372D01*
X100966403Y-104427379D01*
X101016645Y-104562086D01*
X101016649Y-104562093D01*
X101102809Y-104677187D01*
X101102812Y-104677190D01*
X101217906Y-104763350D01*
X101217913Y-104763354D01*
X101335786Y-104807318D01*
X101391720Y-104849189D01*
X101416137Y-104914653D01*
X101401285Y-104982926D01*
X101351880Y-105032332D01*
X101292453Y-105047500D01*
X87124500Y-105047500D01*
X87057461Y-105027815D01*
X87011706Y-104975011D01*
X87000500Y-104923500D01*
X87000500Y-96482110D01*
X87000500Y-96482108D01*
X86966392Y-96354814D01*
X86900500Y-96240686D01*
X86807314Y-96147500D01*
X86739596Y-96108403D01*
X86693187Y-96081608D01*
X86629539Y-96064554D01*
X86565892Y-96047500D01*
X86565891Y-96047500D01*
X78124500Y-96047500D01*
X78057461Y-96027815D01*
X78011706Y-95975011D01*
X78000500Y-95923500D01*
X78000500Y-80202135D01*
X78249500Y-80202135D01*
X78249500Y-83797870D01*
X78249501Y-83797876D01*
X78255908Y-83857483D01*
X78306202Y-83992328D01*
X78306206Y-83992335D01*
X78392452Y-84107544D01*
X78392455Y-84107547D01*
X78507664Y-84193793D01*
X78507671Y-84193797D01*
X78642517Y-84244091D01*
X78642516Y-84244091D01*
X78649444Y-84244835D01*
X78702127Y-84250500D01*
X82297872Y-84250499D01*
X82357483Y-84244091D01*
X82492331Y-84193796D01*
X82607546Y-84107546D01*
X82693796Y-83992331D01*
X82744091Y-83857483D01*
X82750500Y-83797873D01*
X82750499Y-81878711D01*
X87294500Y-81878711D01*
X87294500Y-82121288D01*
X87326161Y-82361785D01*
X87388947Y-82596104D01*
X87406079Y-82637463D01*
X87481776Y-82820212D01*
X87603064Y-83030289D01*
X87603066Y-83030292D01*
X87603067Y-83030293D01*
X87750733Y-83222736D01*
X87750739Y-83222743D01*
X87922256Y-83394260D01*
X87922263Y-83394266D01*
X88035321Y-83481018D01*
X88114711Y-83541936D01*
X88324788Y-83663224D01*
X88548900Y-83756054D01*
X88783211Y-83818838D01*
X88963586Y-83842584D01*
X89023711Y-83850500D01*
X89023712Y-83850500D01*
X89266289Y-83850500D01*
X89314388Y-83844167D01*
X89506789Y-83818838D01*
X89741100Y-83756054D01*
X89965212Y-83663224D01*
X90175289Y-83541936D01*
X90367738Y-83394265D01*
X90539265Y-83222738D01*
X90686936Y-83030289D01*
X90808224Y-82820212D01*
X90901054Y-82596100D01*
X90963838Y-82361789D01*
X90995500Y-82121288D01*
X90995500Y-81878712D01*
X90963838Y-81638211D01*
X90901054Y-81403900D01*
X90808224Y-81179788D01*
X90686936Y-80969711D01*
X90539265Y-80777262D01*
X90539260Y-80777256D01*
X90367743Y-80605739D01*
X90367736Y-80605733D01*
X90175293Y-80458067D01*
X90175292Y-80458066D01*
X90175289Y-80458064D01*
X89965212Y-80336776D01*
X89965205Y-80336773D01*
X89741104Y-80243947D01*
X89506785Y-80181161D01*
X89266289Y-80149500D01*
X89266288Y-80149500D01*
X89023712Y-80149500D01*
X89023711Y-80149500D01*
X88783214Y-80181161D01*
X88548895Y-80243947D01*
X88324794Y-80336773D01*
X88324785Y-80336777D01*
X88114706Y-80458067D01*
X87922263Y-80605733D01*
X87922256Y-80605739D01*
X87750739Y-80777256D01*
X87750733Y-80777263D01*
X87603067Y-80969706D01*
X87481777Y-81179785D01*
X87481773Y-81179794D01*
X87388947Y-81403895D01*
X87326161Y-81638214D01*
X87294500Y-81878711D01*
X82750499Y-81878711D01*
X82750499Y-80202128D01*
X82744091Y-80142517D01*
X82708564Y-80047265D01*
X82693797Y-80007671D01*
X82693793Y-80007664D01*
X82607547Y-79892455D01*
X82607544Y-79892452D01*
X82492335Y-79806206D01*
X82492328Y-79806202D01*
X82357482Y-79755908D01*
X82357483Y-79755908D01*
X82297883Y-79749501D01*
X82297881Y-79749500D01*
X82297873Y-79749500D01*
X82297864Y-79749500D01*
X78702129Y-79749500D01*
X78702123Y-79749501D01*
X78642516Y-79755908D01*
X78507671Y-79806202D01*
X78507664Y-79806206D01*
X78392455Y-79892452D01*
X78392452Y-79892455D01*
X78306206Y-80007664D01*
X78306202Y-80007671D01*
X78255908Y-80142517D01*
X78251754Y-80181161D01*
X78249501Y-80202123D01*
X78249500Y-80202135D01*
X78000500Y-80202135D01*
X78000500Y-70139995D01*
X106585037Y-70139995D01*
X106585037Y-70140004D01*
X106604860Y-70404535D01*
X106604861Y-70404540D01*
X106663890Y-70663166D01*
X106663896Y-70663185D01*
X106760814Y-70910128D01*
X106760813Y-70910128D01*
X106893457Y-71139871D01*
X106943642Y-71202803D01*
X107868871Y-70277573D01*
X107884755Y-70336853D01*
X107951898Y-70453147D01*
X108046853Y-70548102D01*
X108163147Y-70615245D01*
X108222424Y-70631128D01*
X107296438Y-71557112D01*
X107472525Y-71677166D01*
X107472526Y-71677167D01*
X107711530Y-71792264D01*
X107711528Y-71792264D01*
X107965025Y-71870458D01*
X107965031Y-71870459D01*
X108227351Y-71909999D01*
X108227358Y-71910000D01*
X108492642Y-71910000D01*
X108492648Y-71909999D01*
X108754968Y-71870459D01*
X108754974Y-71870458D01*
X109008470Y-71792264D01*
X109247479Y-71677164D01*
X109423560Y-71557112D01*
X108497575Y-70631128D01*
X108556853Y-70615245D01*
X108673147Y-70548102D01*
X108768102Y-70453147D01*
X108835245Y-70336853D01*
X108851128Y-70277575D01*
X109776355Y-71202803D01*
X109776356Y-71202802D01*
X109826545Y-71139869D01*
X109959185Y-70910128D01*
X110056103Y-70663185D01*
X110056109Y-70663166D01*
X110115138Y-70404540D01*
X110115139Y-70404535D01*
X110134963Y-70140004D01*
X110134963Y-70139995D01*
X110115139Y-69875464D01*
X110115138Y-69875459D01*
X110056109Y-69616833D01*
X110056103Y-69616814D01*
X109959185Y-69369871D01*
X109959186Y-69369871D01*
X109826543Y-69140129D01*
X109826536Y-69140118D01*
X109776356Y-69077196D01*
X109776355Y-69077195D01*
X108851127Y-70002423D01*
X108835245Y-69943147D01*
X108768102Y-69826853D01*
X108673147Y-69731898D01*
X108556853Y-69664755D01*
X108497575Y-69648872D01*
X109423560Y-68722886D01*
X109247484Y-68602839D01*
X109247474Y-68602832D01*
X109008469Y-68487735D01*
X109008471Y-68487735D01*
X108754974Y-68409541D01*
X108754968Y-68409540D01*
X108492648Y-68370000D01*
X108227351Y-68370000D01*
X107965031Y-68409540D01*
X107965025Y-68409541D01*
X107711529Y-68487735D01*
X107472526Y-68602832D01*
X107472518Y-68602837D01*
X107296438Y-68722886D01*
X108222424Y-69648871D01*
X108163147Y-69664755D01*
X108046853Y-69731898D01*
X107951898Y-69826853D01*
X107884755Y-69943147D01*
X107868871Y-70002424D01*
X106943643Y-69077196D01*
X106893456Y-69140128D01*
X106760814Y-69369871D01*
X106663896Y-69616814D01*
X106663890Y-69616833D01*
X106604861Y-69875459D01*
X106604860Y-69875464D01*
X106585037Y-70139995D01*
X78000500Y-70139995D01*
X78000500Y-68172500D01*
X78020185Y-68105461D01*
X78072989Y-68059706D01*
X78124500Y-68048500D01*
X86565890Y-68048500D01*
X86565892Y-68048500D01*
X86693186Y-68014392D01*
X86807314Y-67948500D01*
X86900500Y-67855314D01*
X86966392Y-67741186D01*
X87000500Y-67613892D01*
X87000500Y-61602135D01*
X92874500Y-61602135D01*
X92874500Y-63397870D01*
X92874501Y-63397876D01*
X92880908Y-63457483D01*
X92931202Y-63592328D01*
X92931206Y-63592335D01*
X93017452Y-63707544D01*
X93017455Y-63707547D01*
X93132664Y-63793793D01*
X93132671Y-63793797D01*
X93267517Y-63844091D01*
X93267516Y-63844091D01*
X93274444Y-63844835D01*
X93327127Y-63850500D01*
X95122872Y-63850499D01*
X95182483Y-63844091D01*
X95317331Y-63793796D01*
X95432546Y-63707546D01*
X95518796Y-63592331D01*
X95567810Y-63460916D01*
X95609681Y-63404984D01*
X95675145Y-63380566D01*
X95743418Y-63395417D01*
X95771673Y-63416569D01*
X95893599Y-63538495D01*
X95990384Y-63606265D01*
X96087165Y-63674032D01*
X96087167Y-63674033D01*
X96087170Y-63674035D01*
X96301337Y-63773903D01*
X96529592Y-63835063D01*
X96706034Y-63850500D01*
X96764999Y-63855659D01*
X96765000Y-63855659D01*
X96765001Y-63855659D01*
X96823966Y-63850500D01*
X97000408Y-63835063D01*
X97228663Y-63773903D01*
X97442830Y-63674035D01*
X97636401Y-63538495D01*
X97803495Y-63371401D01*
X97939035Y-63177830D01*
X98038903Y-62963663D01*
X98100063Y-62735408D01*
X98120659Y-62500000D01*
X98100063Y-62264592D01*
X98038903Y-62036337D01*
X97939035Y-61822171D01*
X97803495Y-61628599D01*
X97803494Y-61628597D01*
X97636402Y-61461506D01*
X97636395Y-61461501D01*
X97442834Y-61325967D01*
X97442830Y-61325965D01*
X97442828Y-61325964D01*
X97228663Y-61226097D01*
X97228659Y-61226096D01*
X97228655Y-61226094D01*
X97000413Y-61164938D01*
X97000403Y-61164936D01*
X96765001Y-61144341D01*
X96764999Y-61144341D01*
X96529596Y-61164936D01*
X96529586Y-61164938D01*
X96301344Y-61226094D01*
X96301335Y-61226098D01*
X96087171Y-61325964D01*
X96087169Y-61325965D01*
X95893600Y-61461503D01*
X95771673Y-61583430D01*
X95710350Y-61616914D01*
X95640658Y-61611930D01*
X95584725Y-61570058D01*
X95567810Y-61539081D01*
X95518797Y-61407671D01*
X95518793Y-61407664D01*
X95432547Y-61292455D01*
X95432544Y-61292452D01*
X95317335Y-61206206D01*
X95317328Y-61206202D01*
X95182482Y-61155908D01*
X95182483Y-61155908D01*
X95122883Y-61149501D01*
X95122881Y-61149500D01*
X95122873Y-61149500D01*
X95122864Y-61149500D01*
X93327129Y-61149500D01*
X93327123Y-61149501D01*
X93267516Y-61155908D01*
X93132671Y-61206202D01*
X93132664Y-61206206D01*
X93017455Y-61292452D01*
X93017452Y-61292455D01*
X92931206Y-61407664D01*
X92931202Y-61407671D01*
X92880908Y-61542517D01*
X92874501Y-61602116D01*
X92874500Y-61602135D01*
X87000500Y-61602135D01*
X87000500Y-59172500D01*
X87020185Y-59105461D01*
X87072989Y-59059706D01*
X87124500Y-59048500D01*
X107156268Y-59048500D01*
X107223307Y-59068185D01*
G37*
%TD.AperFunction*%
%TD*%
M02*
