M48
; DRILL file {KiCad 8.0.6-1.fc41} date 2024-11-27T18:26:20+0800
; FORMAT={-:-/ absolute / inch / decimal}
; #@! TF.CreationDate,2024-11-27T18:26:20+08:00
; #@! TF.GenerationSoftware,Kicad,Pcbnew,8.0.6-1.fc41
; #@! TF.FileFunction,Plated,1,2,PTH
FMAT,2
INCH
; #@! TA.AperFunction,Plated,PTH,ViaDrill
T1C0.0118
; #@! TA.AperFunction,Plated,PTH,ComponentDrill
T2C0.0315
; #@! TA.AperFunction,Plated,PTH,ComponentDrill
T3C0.0394
; #@! TA.AperFunction,Plated,PTH,ComponentDrill
T4C0.0402
; #@! TA.AperFunction,Plated,PTH,ComponentDrill
T5C0.0787
; #@! TA.AperFunction,Plated,PTH,ComponentDrill
T6C0.1654
%
G90
G05
T1
X3.4656Y-2.4606
T2
X4.026Y-3.7598
X4.026Y-4.0598
X4.126Y-3.7598
X4.126Y-4.0598
X4.226Y-3.7598
X4.226Y-4.0598
X4.326Y-3.7598
X4.326Y-4.0598
X4.426Y-3.7598
X4.426Y-4.0598
X4.526Y-3.7598
X4.526Y-4.0598
X4.626Y-3.7598
X4.626Y-4.0598
X4.726Y-3.7598
X4.726Y-4.0598
X4.826Y-3.7598
X4.826Y-4.0598
X4.926Y-3.7598
X4.926Y-4.0598
X5.3356Y-3.8217
X5.3356Y-4.0138
T3
X3.7096Y-2.4606
X3.8096Y-2.4606
T4
X4.2661Y-2.3874
X4.2661Y-2.7614
X5.1323Y-2.7693
X5.1433Y-2.3874
T5
X3.1693Y-3.2283
X6.0039Y-3.2283
T6
X3.6811Y-3.8976
X5.5118Y-2.5591
M30
