%TF.GenerationSoftware,KiCad,Pcbnew,8.0.6-1.fc41*%
%TF.CreationDate,2024-11-27T18:25:38+08:00*%
%TF.ProjectId,signal_source,7369676e-616c-45f7-936f-757263652e6b,rev?*%
%TF.SameCoordinates,Original*%
%TF.FileFunction,Soldermask,Top*%
%TF.FilePolarity,Negative*%
%FSLAX46Y46*%
G04 Gerber Fmt 4.6, Leading zero omitted, Abs format (unit mm)*
G04 Created by KiCad (PCBNEW 8.0.6-1.fc41) date 2024-11-27 18:25:38*
%MOMM*%
%LPD*%
G01*
G04 APERTURE LIST*
G04 Aperture macros list*
%AMRoundRect*
0 Rectangle with rounded corners*
0 $1 Rounding radius*
0 $2 $3 $4 $5 $6 $7 $8 $9 X,Y pos of 4 corners*
0 Add a 4 corners polygon primitive as box body*
4,1,4,$2,$3,$4,$5,$6,$7,$8,$9,$2,$3,0*
0 Add four circle primitives for the rounded corners*
1,1,$1+$1,$2,$3*
1,1,$1+$1,$4,$5*
1,1,$1+$1,$6,$7*
1,1,$1+$1,$8,$9*
0 Add four rect primitives between the rounded corners*
20,1,$1+$1,$2,$3,$4,$5,0*
20,1,$1+$1,$4,$5,$6,$7,0*
20,1,$1+$1,$6,$7,$8,$9,0*
20,1,$1+$1,$8,$9,$2,$3,0*%
G04 Aperture macros list end*
%ADD10RoundRect,0.250000X-0.325000X-0.650000X0.325000X-0.650000X0.325000X0.650000X-0.325000X0.650000X0*%
%ADD11C,2.540000*%
%ADD12R,2.540000X2.540000*%
%ADD13RoundRect,0.250000X-0.312500X-0.625000X0.312500X-0.625000X0.312500X0.625000X-0.312500X0.625000X0*%
%ADD14RoundRect,0.250000X0.325000X0.650000X-0.325000X0.650000X-0.325000X-0.650000X0.325000X-0.650000X0*%
%ADD15C,7.000000*%
%ADD16RoundRect,0.250000X0.312500X0.625000X-0.312500X0.625000X-0.312500X-0.625000X0.312500X-0.625000X0*%
%ADD17R,1.700000X1.700000*%
%ADD18O,1.700000X1.700000*%
%ADD19C,1.500000*%
%ADD20R,1.600000X2.400000*%
%ADD21O,1.600000X2.400000*%
%ADD22C,3.200000*%
%ADD23R,3.500000X3.500000*%
%ADD24C,3.500000*%
G04 APERTURE END LIST*
D10*
%TO.C,C2*%
X88025000Y-62500000D03*
X90975000Y-62500000D03*
%TD*%
D11*
%TO.C,2T:5T*%
X108360000Y-60640000D03*
X108360000Y-70140000D03*
D12*
X130640000Y-60640000D03*
X130360000Y-70340000D03*
%TD*%
D13*
%TO.C,R1*%
X142100000Y-99000000D03*
X145025000Y-99000000D03*
%TD*%
D14*
%TO.C,C3*%
X131000000Y-102000000D03*
X128050000Y-102000000D03*
%TD*%
D15*
%TO.C,J3*%
X140000000Y-65000000D03*
%TD*%
D16*
%TO.C,R2*%
X130987500Y-98000000D03*
X128062500Y-98000000D03*
%TD*%
D17*
%TO.C,J1*%
X94225000Y-62500000D03*
D18*
X96765000Y-62500000D03*
%TD*%
D14*
%TO.C,C5*%
X145025000Y-95000000D03*
X142075000Y-95000000D03*
%TD*%
D10*
%TO.C,C1*%
X102000000Y-69500000D03*
X104950000Y-69500000D03*
%TD*%
D15*
%TO.C,J2*%
X93500000Y-99000000D03*
%TD*%
D19*
%TO.C,Y1*%
X135525000Y-101950000D03*
X135525000Y-97070000D03*
%TD*%
D14*
%TO.C,C4*%
X145000000Y-104000000D03*
X142050000Y-104000000D03*
%TD*%
D20*
%TO.C,U1*%
X102260000Y-103120000D03*
D21*
X104800000Y-103120000D03*
X107340000Y-103120000D03*
X109880000Y-103120000D03*
X112420000Y-103120000D03*
X114960000Y-103120000D03*
X117500000Y-103120000D03*
X120040000Y-103120000D03*
X122580000Y-103120000D03*
X125120000Y-103120000D03*
X125120000Y-95500000D03*
X122580000Y-95500000D03*
X120040000Y-95500000D03*
X117500000Y-95500000D03*
X114960000Y-95500000D03*
X112420000Y-95500000D03*
X109880000Y-95500000D03*
X107340000Y-95500000D03*
X104800000Y-95500000D03*
X102260000Y-95500000D03*
%TD*%
D22*
%TO.C,BT2*%
X89145000Y-82000000D03*
X144755000Y-82000000D03*
D23*
X80500000Y-82000000D03*
D24*
X152500000Y-82000000D03*
%TD*%
M02*
